<svg width="20" height="20" viewBox="0 0 20 20" fill="none" xmlns="http://www.w3.org/2000/svg">
<g clip-path="url(#clip0_2789_10043)">
<path d="M14.1667 15C14.1667 14.337 13.9033 13.7011 13.4344 13.2322C12.9656 12.7634 12.3297 12.5 11.6667 12.5C11.0036 12.5 10.3677 12.7634 9.89889 13.2322C9.43005 13.7011 9.16666 14.337 9.16666 15H10.8333C10.8333 14.779 10.9211 14.567 11.0774 14.4107C11.2337 14.2545 11.4456 14.1667 11.6667 14.1667C11.8877 14.1667 12.0996 14.2545 12.2559 14.4107C12.4122 14.567 12.5 14.779 12.5 15C12.5 15.4167 11.7917 15.9483 11.1667 16.4167C10.2292 17.12 9.16666 17.9167 9.16666 19.1667V20H14.1667V18.3333H11.425C11.6508 18.1367 11.9158 17.9383 12.1667 17.75C13.1042 17.0467 14.1667 16.25 14.1667 15Z" fill="#D4AF37"/>
<path d="M18.3333 15.8333H16.6667V12.5H15V15.8333C15 16.2754 15.1756 16.6993 15.4882 17.0118C15.8007 17.3244 16.2246 17.5 16.6667 17.5H18.3333V20H20V12.5H18.3333V15.8333Z" fill="#D4AF37"/>
<path d="M10.8333 5H9.16668V9.16667H5.83334V10.8333H10.8333V5Z" fill="#D4AF37"/>
<path d="M18.3333 1.66667V4.47833C17.4386 3.12517 16.228 2.0101 14.806 1.22939C13.384 0.44867 11.7934 0.0257705 10.1714 -0.00280344C8.54945 -0.0313774 6.94491 0.335233 5.4963 1.06538C4.0477 1.79552 2.79856 2.86726 1.85673 4.18807C0.914901 5.50887 0.308683 7.03906 0.0904106 8.64652C-0.127861 10.254 0.0483719 11.8904 0.603896 13.4145C1.15942 14.9387 2.07754 16.3047 3.279 17.3947C4.48045 18.4847 5.92914 19.2659 7.49999 19.6708V17.9492C6.20442 17.5462 5.02683 16.8329 4.06955 15.8714C3.11226 14.9099 2.40423 13.7292 2.00697 12.4318C1.60971 11.1345 1.53523 9.75975 1.79001 8.42708C2.04478 7.09441 2.62111 5.8441 3.46891 4.78479C4.31672 3.72547 5.41035 2.88918 6.65481 2.34859C7.89927 1.80799 9.2569 1.57942 10.6098 1.68276C11.9626 1.78609 13.2698 2.2182 14.4177 2.94153C15.5656 3.66486 16.5196 4.65754 17.1967 5.83333H14.1667V7.5H18.3333C18.7754 7.5 19.1993 7.3244 19.5118 7.01184C19.8244 6.69928 20 6.27536 20 5.83333V1.66667H18.3333Z" fill="#D4AF37"/>
</g>
<defs>
<clipPath id="clip0_2789_10043">
<rect width="20" height="20" fill="white"/>
</clipPath>
</defs>
</svg>
