<svg width="20" height="20" viewBox="0 0 20 20" fill="none" xmlns="http://www.w3.org/2000/svg">
<g clip-path="url(#clip0_2786_10003)">
<path d="M16.0964 17.5886L14.3951 8.91591L17.7032 5.21417C19.121 3.6277 19.5936 1.51242 19.121 0.983601C18.6484 0.454781 16.758 0.983601 15.3403 2.57006L12.0321 6.27181L4.29111 4.36805C2.40075 3.945 1.45557 4.89687 1.45557 5.95452L4.7637 9.65626L0.708878 14.2041C0.708878 14.2041 0.708878 15.2618 1.65406 15.7906C2.12665 16.3194 3.07183 15.7906 3.07183 15.7906L7.12665 11.2427L10.4348 14.9445C11.38 16.0021 11.8525 18.1174 11.8525 18.1174L13.2703 19.175C14.31 19.3866 15.1607 18.4347 14.6881 17.5886H16.1059H16.0964Z" stroke="#D4AF37" stroke-width="1.5" stroke-linecap="round" stroke-linejoin="round"/>
</g>
<defs>
<clipPath id="clip0_2786_10003">
<rect width="20" height="20" fill="white"/>
</clipPath>
</defs>
</svg>
