<svg width="20" height="20" viewBox="0 0 20 20" fill="none" xmlns="http://www.w3.org/2000/svg">
<g clip-path="url(#clip0_2786_9897)">
<path d="M12.9674 5.58641C12.9674 5.28903 12.9229 4.99166 12.8487 4.69429C12.7745 4.39691 12.6558 4.11098 12.5074 3.83648C12.3591 3.56198 12.181 3.29892 11.9585 3.0473C11.7359 2.79568 11.4985 2.56693 11.2166 2.34962C10.9347 2.1323 10.638 1.94931 10.3116 1.77774C9.98517 1.60618 9.64392 1.46893 9.28784 1.35456C8.93175 1.24019 8.56083 1.14869 8.17508 1.0915C7.78932 1.03431 7.40356 1 7.01781 1H1.11276V5.57497C1.11276 5.87234 1.15727 6.16971 1.23146 6.46709C1.30564 6.76446 1.42434 7.0504 1.5727 7.32489C1.72107 7.59939 1.89911 7.86245 2.12166 8.11408C2.34422 8.3657 2.58161 8.59445 2.8635 8.81176C3.1454 9.02907 3.44214 9.21207 3.76855 9.38363C4.09496 9.55519 4.4362 9.69244 4.79229 9.80681C5.14837 9.92119 5.51929 10.0127 5.90505 10.0699C6.2908 10.1271 6.67656 10.1614 7.06232 10.1614H12.997" stroke="#D4AF37" stroke-width="1.5" stroke-linecap="round" stroke-linejoin="round"/>
<path d="M12.9674 10.1499C13.3531 10.1499 13.7389 10.1842 14.1246 10.2414C14.5104 10.2986 14.8813 10.3901 15.2374 10.5045C15.5935 10.6189 15.9347 10.7561 16.2611 10.9277C16.5876 11.0992 16.8843 11.2822 17.1662 11.4995C17.4481 11.7169 17.6855 11.9456 17.908 12.1972C18.1306 12.4489 18.3086 12.7119 18.457 12.9864C18.6054 13.2609 18.724 13.5468 18.7982 13.8442C18.8724 14.1416 18.9169 14.439 18.9169 14.7363V19.3113H12.9822C12.5965 19.3113 12.2107 19.277 11.8249 19.2198C11.4392 19.1626 11.0683 19.0711 10.7122 18.9567C10.3561 18.8424 10.0149 18.7051 9.68844 18.5336C9.36203 18.362 9.0653 18.179 8.7834 17.9617C8.5015 17.7444 8.26411 17.5156 8.04156 17.264C7.819 17.0124 7.64096 16.7493 7.4926 16.4748C7.34423 16.2003 7.22553 15.9144 7.15135 15.617C7.07716 15.3196 7.03265 15.0223 7.03265 14.7249V10.1499" stroke="#D4AF37" stroke-width="1.5" stroke-linecap="round" stroke-linejoin="round"/>
<path d="M12.9673 5.5864V10.1499" stroke="#D4AF37" stroke-width="1.5" stroke-linecap="round" stroke-linejoin="round"/>
<path d="M12.9673 14.7249V19.2999" stroke="#D4AF37" stroke-width="1.5" stroke-linecap="round" stroke-linejoin="round"/>
</g>
<defs>
<clipPath id="clip0_2786_9897">
<rect width="20" height="20" fill="white"/>
</clipPath>
</defs>
</svg>
