<svg width="20" height="20" viewBox="0 0 20 20" fill="none" xmlns="http://www.w3.org/2000/svg">
<g clip-path="url(#clip0_2786_10011)">
<path d="M16.516 12.4353V13.4114H3.49323V12.4353" stroke="#D4AF37" stroke-width="1.5" stroke-linecap="round" stroke-linejoin="round"/>
<path d="M10.0046 19.2679V15.3636" stroke="#D4AF37" stroke-width="1.5" stroke-linecap="round" stroke-linejoin="round"/>
<path d="M0.698639 5.6125L10.0046 0.732071L19.3107 5.6125V17.3255C19.3107 17.5891 19.2641 17.8331 19.1709 18.0771C19.0778 18.3211 18.938 18.5261 18.7704 18.7116C18.5934 18.897 18.3978 19.0337 18.1649 19.1313C17.932 19.2289 17.6991 19.2777 17.4569 19.2777H2.5617C2.31951 19.2777 2.07731 19.2289 1.85374 19.1313C1.63017 19.0337 1.42523 18.8873 1.24824 18.7116C1.07125 18.5261 0.940837 18.3211 0.847684 18.0771C0.754531 17.8429 0.707954 17.5891 0.707954 17.3255V5.6125H0.698639Z" stroke="#D4AF37" stroke-width="1.5" stroke-linecap="round" stroke-linejoin="round"/>
<path d="M10.0046 6.58859V10.4929" stroke="#D4AF37" stroke-width="1.5" stroke-linecap="round" stroke-linejoin="round"/>
<path d="M8.14157 8.54076H11.8584" stroke="#D4AF37" stroke-width="1.5" stroke-linecap="round" stroke-linejoin="round"/>
</g>
<defs>
<clipPath id="clip0_2786_10011">
<rect width="20" height="20" fill="white"/>
</clipPath>
</defs>
</svg>
