<svg width="20" height="20" viewBox="0 0 20 20" fill="none" xmlns="http://www.w3.org/2000/svg">
<g clip-path="url(#clip0_2786_9921)">
<path d="M2.82341 0.769625H17.1766C17.4435 0.769625 17.7105 0.820933 17.9569 0.92355C18.2033 1.02617 18.4292 1.18009 18.6242 1.3648C18.8193 1.55977 18.963 1.77527 19.0657 2.03181C19.1684 2.28835 19.2197 2.54489 19.2197 2.82196V17.178C19.2197 17.4551 19.1684 17.7116 19.0657 17.9682C18.963 18.2247 18.809 18.4402 18.6242 18.6352C18.4292 18.8302 18.2136 18.9738 17.9569 19.0764C17.7002 19.1791 17.4435 19.2304 17.1766 19.2304H2.82341C2.55647 19.2304 2.28953 19.1791 2.04312 19.0764C1.79672 18.9738 1.57084 18.8199 1.37577 18.6352C1.1807 18.4402 1.03696 18.2247 0.934293 17.9682C0.831623 17.7116 0.780289 17.4551 0.780289 17.178V2.82196C0.780289 2.54489 0.831623 2.28835 0.934293 2.03181C1.03696 1.77527 1.19097 1.55977 1.37577 1.3648C1.57084 1.16983 1.78645 1.02617 2.04312 0.92355C2.28953 0.820933 2.55647 0.769625 2.82341 0.769625Z" stroke="#D4AF37" stroke-width="1.5" stroke-linecap="round" stroke-linejoin="round"/>
<path d="M6.91992 7.9528L10 4.87429L13.0698 7.9528" stroke="#D4AF37" stroke-width="1.5" stroke-linecap="round" stroke-linejoin="round"/>
<path d="M6.91992 12.0575L10 15.1257L13.0698 12.0575" stroke="#D4AF37" stroke-width="1.5" stroke-linecap="round" stroke-linejoin="round"/>
</g>
<defs>
<clipPath id="clip0_2786_9921">
<rect width="20" height="20" fill="white"/>
</clipPath>
</defs>
</svg>
