<svg width="20" height="20" viewBox="0 0 20 20" fill="none" xmlns="http://www.w3.org/2000/svg">
<g clip-path="url(#clip0_2786_9986)">
<path d="M4.29062 13.0734H15.7094" stroke="#D4AF37" stroke-width="1.5" stroke-linecap="round" stroke-linejoin="round"/>
<path d="M0.858124 8.97896H19.1419" stroke="#D4AF37" stroke-width="1.5" stroke-linecap="round" stroke-linejoin="round"/>
<path d="M3.14646 0.769623H16.865C17.1625 0.769623 17.46 0.820931 17.7346 0.923548C18.0092 1.02616 18.2609 1.18009 18.4783 1.3648C18.6957 1.55977 18.8558 1.77527 18.9703 2.03181C19.0847 2.27809 19.1419 2.54489 19.1419 2.82196V15.136C19.1419 15.413 19.0847 15.6696 18.9703 15.9261C18.8558 16.1724 18.6842 16.3982 18.4783 16.5931C18.2609 16.7881 18.0206 16.9318 17.7346 17.0344C17.46 17.137 17.1625 17.1883 16.865 17.1883H3.14646C2.84897 17.1883 2.55149 17.137 2.27689 17.0344C2.00229 16.9318 1.75057 16.7778 1.53318 16.5931C1.31579 16.3982 1.15561 16.1827 1.04119 15.9261C0.926776 15.6696 0.869568 15.413 0.869568 15.136V2.82196C0.869568 2.54489 0.926776 2.28835 1.04119 2.03181C1.15561 1.77527 1.32723 1.55977 1.53318 1.3648C1.73913 1.16983 1.99085 1.02616 2.27689 0.923548C2.55149 0.820931 2.84897 0.769623 3.14646 0.769623Z" stroke="#D4AF37" stroke-width="1.5" stroke-linecap="round" stroke-linejoin="round"/>
<path d="M14.5652 19.2304L12.2883 16.1519H7.71167L5.42334 19.2304" stroke="#D4AF37" stroke-width="1.5" stroke-linecap="round" stroke-linejoin="round"/>
</g>
<defs>
<clipPath id="clip0_2786_9986">
<rect width="20" height="20" fill="white"/>
</clipPath>
</defs>
</svg>
