<svg width="20" height="20" viewBox="0 0 20 20" fill="none" xmlns="http://www.w3.org/2000/svg">
<g clip-path="url(#clip0_2786_9953)">
<path d="M8.59673 17.9217L17.9114 8.60205C18.1259 8.38769 18.3217 8.1547 18.4988 7.90307C18.6667 7.65144 18.8158 7.38117 18.9371 7.10158C19.0583 6.82199 19.1422 6.53308 19.2075 6.23485C19.2727 5.93662 19.3007 5.63839 19.3007 5.33084C19.3007 5.0233 19.2727 4.72507 19.2168 4.42684C19.1608 4.12861 19.0676 3.8397 18.9557 3.55079C18.8438 3.2712 18.6946 3.00093 18.5268 2.7493C18.359 2.49767 18.1632 2.26467 17.9487 2.041C17.7343 1.81733 17.5012 1.63094 17.2494 1.46318C16.9977 1.29543 16.7273 1.15563 16.4475 1.03448C16.1678 0.913323 15.8788 0.829446 15.5804 0.773528C15.282 0.71761 14.9837 0.689651 14.676 0.689651C14.3683 0.689651 14.0699 0.72693 13.7716 0.782848C13.4732 0.848086 13.1841 0.931963 12.9044 1.05312C12.6247 1.17427 12.3543 1.31407 12.1026 1.49114C11.8508 1.6589 11.6177 1.85461 11.4033 2.07828L2.07925 11.3979C1.8648 11.6123 1.66899 11.8453 1.49184 12.0969C1.324 12.3486 1.17482 12.6188 1.05361 12.8984C0.932396 13.178 0.84848 13.4669 0.783212 13.7651C0.717944 14.0634 0.689972 14.3616 0.689972 14.6691C0.689972 14.9767 0.717944 15.2749 0.773888 15.5732C0.829832 15.8714 0.923072 16.1603 1.03496 16.4492C1.14685 16.7288 1.29603 16.9991 1.46386 17.2507C1.6317 17.5023 1.8275 17.7353 2.04195 17.959C2.25641 18.1733 2.48951 18.3691 2.74125 18.5368C2.993 18.7046 3.2634 18.8444 3.54312 18.9655C3.82284 19.0867 4.11188 19.1705 4.41025 19.2265C4.70862 19.2824 5.00699 19.3103 5.31468 19.3103C5.62237 19.3103 5.92074 19.2731 6.21911 19.2171C6.51748 19.1519 6.80652 19.068 7.08624 18.9469C7.36596 18.8257 7.63636 18.6859 7.88811 18.5089C8.13986 18.3411 8.37296 18.1454 8.58741 17.9217H8.59673Z" stroke="#D4AF37" stroke-width="1.5" stroke-linecap="round" stroke-linejoin="round"/>
<path d="M6.74126 6.73811L13.2587 13.2619" stroke="#D4AF37" stroke-width="1.5" stroke-linecap="round" stroke-linejoin="round"/>
</g>
<defs>
<clipPath id="clip0_2786_9953">
<rect width="20" height="20" fill="white"/>
</clipPath>
</defs>
</svg>
