<svg width="20" height="20" viewBox="0 0 20 20" fill="none" xmlns="http://www.w3.org/2000/svg">
<g clip-path="url(#clip0_2789_10051)">
<path d="M10.8333 20H9.52583C9.39563 20 9.26724 19.9696 9.15094 19.911C9.03464 19.8525 8.93368 19.7675 8.85615 19.6629C8.77861 19.5583 8.72666 19.437 8.70447 19.3087C8.68227 19.1804 8.69044 19.0487 8.72833 18.9242C8.96694 18.1926 9.11417 17.4344 9.16667 16.6667C9.16667 16.2246 8.99107 15.8007 8.67851 15.4882C8.36595 15.1756 7.94203 15 7.5 15C7.05797 15 6.63405 15.1756 6.32149 15.4882C6.00893 15.8007 5.83333 16.2246 5.83333 16.6667C5.88583 17.4344 6.03305 18.1926 6.27167 18.9242C6.30955 19.0487 6.31773 19.1804 6.29553 19.3087C6.27334 19.437 6.22139 19.5583 6.14385 19.6629C6.06632 19.7675 5.96536 19.8525 5.84906 19.911C5.73276 19.9696 5.60436 20 5.47417 20H4.16667C3.062 19.9987 2.00296 19.5593 1.22185 18.7782C0.440735 17.997 0.00132321 16.938 0 15.8333L0 9.16667C0.00132321 8.062 0.440735 7.00296 1.22185 6.22185C2.00296 5.44073 3.062 5.00132 4.16667 5H4.39333C4.26136 4.45359 4.18541 3.89515 4.16667 3.33333C4.16667 2.44928 4.51786 1.60143 5.14298 0.976311C5.7681 0.35119 6.61594 0 7.5 0C8.38406 0 9.2319 0.35119 9.85702 0.976311C10.4821 1.60143 10.8333 2.44928 10.8333 3.33333C10.8146 3.89515 10.7386 4.45359 10.6067 5H10.8333C11.906 5.00012 12.9375 5.41346 13.7134 6.15415C14.4893 6.89484 14.9501 7.90597 15 8.9775C15.5465 8.8457 16.1049 8.76948 16.6667 8.75C17.5507 8.75 18.3986 9.10119 19.0237 9.72631C19.6488 10.3514 20 11.1993 20 12.0833C20 12.9674 19.6488 13.8152 19.0237 14.4404C18.3986 15.0655 17.5507 15.4167 16.6667 15.4167C16.1049 15.3974 15.5465 15.3215 15 15.19V15.8333C14.9987 16.938 14.5593 17.997 13.7782 18.7782C12.997 19.5593 11.938 19.9987 10.8333 20ZM10.6067 18.3333H10.8333C11.4964 18.3333 12.1323 18.0699 12.6011 17.6011C13.0699 17.1323 13.3333 16.4964 13.3333 15.8333V14.1092C13.3333 13.979 13.3638 13.8506 13.4223 13.7343C13.4808 13.618 13.5658 13.517 13.6704 13.4395C13.775 13.3619 13.8963 13.31 14.0246 13.2878C14.1529 13.2656 14.2846 13.2738 14.4092 13.3117C15.1408 13.5501 15.899 13.6973 16.6667 13.75C17.1087 13.75 17.5326 13.5744 17.8452 13.2618C18.1577 12.9493 18.3333 12.5254 18.3333 12.0833C18.3333 11.6413 18.1577 11.2174 17.8452 10.9048C17.5326 10.5923 17.1087 10.4167 16.6667 10.4167C15.899 10.4694 15.1408 10.6166 14.4092 10.855C14.2846 10.8929 14.1529 10.9011 14.0246 10.8789C13.8963 10.8567 13.775 10.8047 13.6704 10.7272C13.5658 10.6497 13.4808 10.5487 13.4223 10.4324C13.3638 10.3161 13.3333 10.1877 13.3333 10.0575V9.16667C13.3333 8.50362 13.0699 7.86774 12.6011 7.3989C12.1323 6.93006 11.4964 6.66667 10.8333 6.66667H9.52583C9.39563 6.6667 9.26724 6.63623 9.15094 6.57769C9.03464 6.51916 8.93368 6.43419 8.85615 6.32959C8.77861 6.225 8.72666 6.10369 8.70447 5.9754C8.68227 5.84711 8.69044 5.7154 8.72833 5.59083C8.96694 4.85928 9.11417 4.10103 9.16667 3.33333C9.16667 2.89131 8.99107 2.46738 8.67851 2.15482C8.36595 1.84226 7.94203 1.66667 7.5 1.66667C7.05797 1.66667 6.63405 1.84226 6.32149 2.15482C6.00893 2.46738 5.83333 2.89131 5.83333 3.33333C5.88583 4.10103 6.03305 4.85928 6.27167 5.59083C6.30955 5.7154 6.31773 5.84711 6.29553 5.9754C6.27334 6.10369 6.22139 6.225 6.14385 6.32959C6.06632 6.43419 5.96536 6.51916 5.84906 6.57769C5.73276 6.63623 5.60436 6.6667 5.47417 6.66667H4.16667C3.50363 6.66667 2.86774 6.93006 2.3989 7.3989C1.93006 7.86774 1.66667 8.50362 1.66667 9.16667V15.8333C1.66667 16.4964 1.93006 17.1323 2.3989 17.6011C2.86774 18.0699 3.50363 18.3333 4.16667 18.3333H4.39333C4.26136 17.7869 4.18541 17.2285 4.16667 16.6667C4.16667 15.7826 4.51786 14.9348 5.14298 14.3096C5.7681 13.6845 6.61594 13.3333 7.5 13.3333C8.38406 13.3333 9.2319 13.6845 9.85702 14.3096C10.4821 14.9348 10.8333 15.7826 10.8333 16.6667C10.8146 17.2285 10.7386 17.7869 10.6067 18.3333Z" fill="#D4AF37"/>
</g>
<defs>
<clipPath id="clip0_2789_10051">
<rect width="20" height="20" fill="white"/>
</clipPath>
</defs>
</svg>
