<svg width="20" height="20" viewBox="0 0 20 20" fill="none" xmlns="http://www.w3.org/2000/svg">
<g clip-path="url(#clip0_2786_9993)">
<path d="M3.14646 0.732071H16.865C17.1625 0.732071 17.46 0.780875 17.7346 0.878484C18.0092 0.976092 18.2609 1.12251 18.4783 1.2982C18.6957 1.48366 18.8558 1.68864 18.9703 1.93266C19.0847 2.16692 19.1419 2.4207 19.1419 2.68424V14.3973C19.1419 14.6608 19.0847 14.9048 18.9703 15.1489C18.8558 15.3831 18.6842 15.5979 18.4783 15.7833C18.2609 15.9688 18.0206 16.1054 17.7346 16.203C17.46 16.3006 17.1625 16.3494 16.865 16.3494H3.14646C2.84897 16.3494 2.55149 16.3006 2.27689 16.203C2.00229 16.1054 1.75057 15.959 1.53318 15.7833C1.31579 15.5979 1.15561 15.3929 1.04119 15.1489C0.926776 14.9048 0.869568 14.6608 0.869568 14.3973V2.68424C0.869568 2.4207 0.926776 2.17668 1.04119 1.93266C1.15561 1.68864 1.32723 1.48366 1.53318 1.2982C1.73913 1.11274 1.99085 0.976092 2.27689 0.878484C2.55149 0.780875 2.84897 0.732071 3.14646 0.732071Z" stroke="#D4AF37" stroke-width="1.5" stroke-linecap="round" stroke-linejoin="round"/>
<path d="M0.858124 8.54076H19.1419" stroke="#D4AF37" stroke-width="1.5" stroke-linecap="round" stroke-linejoin="round"/>
<path d="M10 0.732071V8.54076" stroke="#D4AF37" stroke-width="1.5" stroke-linecap="round" stroke-linejoin="round"/>
<path d="M5.42334 16.3397L3.14645 19.2679" stroke="#D4AF37" stroke-width="1.5" stroke-linecap="round" stroke-linejoin="round"/>
<path d="M16.8535 19.2679L14.5652 16.3397" stroke="#D4AF37" stroke-width="1.5" stroke-linecap="round" stroke-linejoin="round"/>
<ellipse cx="5.42334" cy="12.4353" rx="0.858124" ry="0.732064" fill="#D4AF37"/>
<ellipse cx="14.5652" cy="12.4353" rx="0.858124" ry="0.732064" fill="#D4AF37"/>
</g>
<defs>
<clipPath id="clip0_2786_9993">
<rect width="20" height="20" fill="white"/>
</clipPath>
</defs>
</svg>
