<svg width="20" height="20" viewBox="0 0 20 20" fill="none" xmlns="http://www.w3.org/2000/svg">
<g clip-path="url(#clip0_2786_9958)">
<path d="M0.77002 0.697998V7.21266C0.77002 8.23639 1.69404 9.07399 2.82341 9.07399H6.93018C7.19712 9.07399 7.46407 9.02745 7.71047 8.93439C7.95688 8.84132 8.18275 8.70172 8.37782 8.5342C8.57289 8.35737 8.71663 8.16194 8.8193 7.92927C8.92197 7.70591 8.9733 7.46394 8.9733 7.21266V0.697998" stroke="#D4AF37" stroke-width="1.5" stroke-linecap="round" stroke-linejoin="round"/>
<path d="M4.86653 0.697998V19.302" stroke="#D4AF37" stroke-width="1.5" stroke-linecap="round" stroke-linejoin="round"/>
<path d="M19.23 12.7873V19.302M19.23 12.7873V0.697998C18.8912 0.697998 18.5626 0.725918 18.2341 0.791065C17.9055 0.846905 17.5873 0.939971 17.269 1.05165C16.9507 1.16333 16.6632 1.31224 16.386 1.47976C16.1088 1.64728 15.8522 1.84272 15.6058 2.05677C15.3696 2.27082 15.154 2.50349 14.9692 2.76408C14.7844 3.01536 14.6201 3.28525 14.4969 3.56445C14.3737 3.84365 14.2711 4.14146 14.2095 4.43927C14.1478 4.73709 14.1068 5.04421 14.1068 5.35133V10.9353C14.1068 11.959 15.0308 12.7966 16.1602 12.7966H19.2403L19.23 12.7873Z" stroke="#D4AF37" stroke-width="1.5" stroke-linecap="round" stroke-linejoin="round"/>
</g>
<defs>
<clipPath id="clip0_2786_9958">
<rect width="20" height="20" fill="white"/>
</clipPath>
</defs>
</svg>
