<svg width="20" height="20" viewBox="0 0 20 20" fill="none" xmlns="http://www.w3.org/2000/svg">
<g clip-path="url(#clip0_2786_10019)">
<path d="M3.8501 0.697998L0.77002 4.42066V17.4407C0.77002 17.6919 0.821354 17.9246 0.924024 18.1573C1.02669 18.3899 1.1807 18.5854 1.3655 18.7622C1.56057 18.939 1.77618 19.0693 2.03285 19.1624C2.27926 19.2555 2.5462 19.302 2.81314 19.302H17.1663C17.4333 19.302 17.7002 19.2555 17.9466 19.1624C18.193 19.0693 18.4189 18.9297 18.614 18.7622C18.809 18.5947 18.9528 18.3899 19.0554 18.1573C19.1581 17.9246 19.2094 17.6919 19.2094 17.4407V4.42066L16.1294 0.697998H3.8501Z" stroke="#D4AF37" stroke-width="1.5" stroke-linecap="round" stroke-linejoin="round"/>
<path d="M0.77002 4.42065H19.23" stroke="#D4AF37" stroke-width="1.5" stroke-linecap="round" stroke-linejoin="round"/>
<path d="M14.0965 8.14333C14.0965 8.3853 14.0657 8.62727 14.0144 8.86924C13.963 9.11122 13.8809 9.34388 13.7782 9.56724C13.6756 9.7906 13.5524 10.0047 13.3984 10.2094C13.2444 10.4141 13.0801 10.6003 12.885 10.7771C12.6899 10.9539 12.4846 11.1028 12.2587 11.2424C12.0329 11.382 11.7967 11.4937 11.5503 11.5868C11.3039 11.6799 11.0472 11.7543 10.7803 11.8008C10.5134 11.8474 10.2464 11.8753 9.97947 11.8753C9.71253 11.8753 9.44559 11.8474 9.17865 11.8008C8.91171 11.7543 8.65503 11.6799 8.40863 11.5868C8.16222 11.4937 7.92608 11.382 7.70021 11.2424C7.47434 11.1028 7.269 10.9539 7.07393 10.7771C6.87885 10.6003 6.71458 10.4141 6.56058 10.2094C6.40657 10.0047 6.28337 9.7906 6.1807 9.56724C6.07803 9.34388 5.9959 9.11122 5.94456 8.86924C5.89323 8.62727 5.86243 8.3853 5.86243 8.14333" stroke="#D4AF37" stroke-width="1.5" stroke-linecap="round" stroke-linejoin="round"/>
</g>
<defs>
<clipPath id="clip0_2786_10019">
<rect width="20" height="20" fill="white"/>
</clipPath>
</defs>
</svg>
