<svg width="21" height="20" viewBox="0 0 21 20" fill="none" xmlns="http://www.w3.org/2000/svg">
<g clip-path="url(#clip0_2786_9905)">
<path d="M0.733582 2.25952C1.32045 2.9051 1.90731 3.55068 3.17885 3.55068C5.62413 3.55068 5.62413 0.968369 8.05962 0.968369C10.4951 0.968369 10.4071 3.55068 12.9404 3.55068C15.4737 3.55068 15.3857 0.968369 17.8211 0.968369C19.0927 0.968369 19.6796 1.61395 20.2664 2.25952" stroke="#D4AF37" stroke-width="1.5" stroke-linecap="round" stroke-linejoin="round"/>
<path d="M0.733582 10.0065C1.32045 10.652 1.90731 11.2976 3.17885 11.2976C5.62413 11.2976 5.62413 8.7153 8.05962 8.7153C10.4951 8.7153 10.4071 11.2976 12.9404 11.2976C15.4737 11.2976 15.3857 8.7153 17.8211 8.7153C19.0927 8.7153 19.6796 9.36088 20.2664 10.0065" stroke="#D4AF37" stroke-width="1.5" stroke-linecap="round" stroke-linejoin="round"/>
<path d="M0.733582 17.7405C1.32045 18.3861 1.90731 19.0316 3.17885 19.0316C5.62413 19.0316 5.62413 16.4493 8.05962 16.4493C10.4951 16.4493 10.4071 19.0316 12.9404 19.0316C15.4737 19.0316 15.3857 16.4493 17.8211 16.4493C19.0927 16.4493 19.6796 17.0949 20.2664 17.7405" stroke="#D4AF37" stroke-width="1.5" stroke-linecap="round" stroke-linejoin="round"/>
</g>
<defs>
<clipPath id="clip0_2786_9905">
<rect width="21" height="20" fill="white"/>
</clipPath>
</defs>
</svg>
